<svg version="1" xmlns="http://www.w3.org/2000/svg" width="682.667" height="682.667" viewBox="0 0 512.000000 512.000000"><path d="M238 .7C148.5 7.8 70.6 59 29.1 138-18 227.8-6.7 338.4 57.5 417.5c14.1 17.5 36.7 38.1 54.8 50.3 32.5 22 66.4 35.1 108.2 41.9 15.6 2.5 55.4 2.5 71 0 17.8-2.9 32.8-6.5 46.5-11.2 22.4-7.7 41.1-16.9 60.2-29.7 36.5-24.3 67-59.2 86.7-98.9 12.2-24.5 19.8-48.2 24.3-76 2.9-18 3.1-54.5.5-71.9-8.9-57.2-31.5-103.8-69.7-143.4-47.7-49.4-110.8-76.9-179-78-10.2-.1-20.5-.1-23 .1zm79.7 94.2c37 7.2 68.6 30.9 85.7 64.1 4.1 7.9 4.7 9.6 3.7 11.6-1.3 2.8-5.5 4.1-7.6 2.4-.9-.7-3.2-4.5-5.1-8.3-4.9-9.7-12.3-20.2-18.9-26.7l-5.6-5.5 2.6 5.9c1.4 3.3 3.8 10.7 5.3 16.5 2.5 9.8 2.7 12.1 2.6 31.6 0 18.1-.3 22.5-2.2 31.5-2.4 10.9-8.4 30.5-10.8 35.2-2.1 4.1-5 5.3-8.1 3.3-3.1-2.1-2.9-4.1 2.1-18 12.8-36.2 12.3-74.7-1.5-101.8-2.9-5.8-11.7-17.7-13-17.7-.4 0-.3 1.9.2 4.2 5.6 29.2-12.4 104.9-36.3 152.2-3 5.9-3 5.9-1.2 9.8 2.6 5.8 7.6 9.8 12.2 9.8 7.4-.1 11.3-3.7 22.7-20.8 6.1-9.2 7.4-10.1 10.9-7.9 4 2.6 3.3 5.6-3.8 16.1l-6.4 9.6 2.9 2.5c7 5.9 19.4 3.4 29.8-6 11.4-10.3 22.7-33 26.8-53.4 2-10.6 2-30.6-.2-41.5-1.7-8.7-1.7-8.8.3-10.8 2.3-2.4 6.6-1.9 8.1 1 .5.9 1.7 6.4 2.6 12.1 4.4 26.4-1.2 56.6-15 80.1-19.8 33.7-56.7 57-94.5 59.8l-9.5.7-4.8 7c-8.5 12.4-12.8 15.3-20.5 14l-3.8-.6-2.4 7.5c-1.3 4.1-2.3 7.8-2.2 8.3 0 .4 1.8 1.3 3.8 2 8.7 3 11.4 9 8.4 18.7-2 6.3-5.6 10.8-9.6 12-1.4.4-2.6 2.6-4.3 7.9-4.8 14.9-6.2 17.8-9.5 19.8-1.7 1-4.7 1.9-6.6 1.8-1.9 0-12.3-3-23-6.7-17.9-6.2-19.7-7-21.7-10.1-3.1-4.6-2.9-6.6 1.4-19.8 3.6-11 3.7-11.4 2-14.2-.9-1.6-1.7-4.1-1.7-5.7 0-4.8 3.3-13.3 6.2-16.1 2.5-2.4 3.7-2.8 8.1-2.6 2.9.1 6.3.3 7.6.5 2.1.3 2.6-.4 4.7-6.6 1.3-3.9 2.4-7.5 2.4-8 0-.6-1.5-1.8-3.3-2.6-1.7-.8-4.2-3.1-5.5-5-2.1-3.2-2.3-4.4-2.1-14.6l.2-11.2-10-9.8c-25.2-24.8-37.7-54.2-37.6-88.4.1-28 9-53.6 26.1-75.2 18-22.6 45.5-39.1 73.8-44.2 11.9-2.1 33.3-2 45.1.3zm-177.3 10.2c3.3 2.6 3.5 7 .4 9.9-2.1 1.9-3.4 2-27.5 2-24 0-25.4-.1-27.3-2-2.9-2.9-2.6-7.4.6-9.9 2.5-2 3.9-2.1 26.9-2.1s24.4.1 26.9 2.1zm34.7 3.7c4.3 2.2 5.9 3.8 8.2 8.2 2.5 4.8 2.8 6.3 2.4 11.5-.7 9.8-5.7 17.2-14.2 21.1l-5 2.4h-43.2c-42 0-43.4-.1-45.3-2-1.1-1.1-2-3.1-2-4.5s.9-3.4 2-4.5c1.9-1.9 3.3-2 43-2 32.4 0 41.8-.3 44.3-1.4 6.9-2.8 9.3-12 4.3-16.3-1.5-1.2-3.3-2.3-4.1-2.3-2 0-4.5 2.9-4.5 5.2 0 3.2-2.9 5.8-6.3 5.8-10.1 0-8.5-16 2.2-21.7 6-3.1 11.5-3 18.2.5zm-39.2 62.6c2.9 2.6 2.8 8-.1 10-1.9 1.3-5.8 1.6-22.6 1.6-20.2 0-20.3 0-22.7-2.5-3.7-3.6-2.8-8.6 1.8-10.5 1.2-.5 11-.8 21.8-.7 17.8.2 19.9.4 21.8 2.1zm281.2 190.9c6.4 3.4 10.2 9.3 10.7 16.7.8 10.8-4.6 20.1-14.3 24.6-4.9 2.4-5.4 2.4-41.2 2.4h-36.2l-2-2.6c-2.6-3.3-2.7-5.8-.1-8.4 1.9-1.9 3.3-2 36.9-2 34.5 0 34.8 0 38.2-2.3 4.4-2.9 6.6-8.6 5-12.5-1.5-3.7-5.6-6-7.9-4.6-.8.6-2 2.4-2.5 4-1.4 4.3-3.7 6.4-6.9 6.4-6.4 0-8.6-6.7-4.7-14.7 4.2-8.8 15.6-11.9 25-7zM314 395c4.1 4.1 1 11-4.7 11-3.4 0-4.6-.8-6.2-3.7-1.5-3-1.4-3.6 1-6.7 2.5-3.2 7-3.5 9.9-.6zm44.8 26.6c2.7 1.8 3 6.9.5 9.6-1.5 1.7-4 1.8-37.9 1.8h-36.3l-1.5-2.2c-2.2-3.1-2-5.8.6-8.5l2.1-2.3h35.2c30.1 0 35.4.2 37.3 1.6z"/><path d="M273.2 105.1c-24.1 5.1-43.3 15.7-59.5 32.9-11.7 12.5-18.9 24.2-24.4 40-4.4 12.4-5.8 21-5.8 35 .1 10.6.4 13.3 2.3 17.8 4.4 10.4 11 16.2 18.6 16.2h3.4l.7-9.8c2.5-38.1 14.7-72.2 35.4-98.9 10.7-13.7 27.3-28.7 36-32.2 1.7-.8 3.1-1.7 3.1-2.2 0-.5-.1-.9-.2-.8-.2 0-4.5.9-9.6 2z"/><path d="M298.8 108.9c-29.3 9.4-57.7 42.5-71.2 83.1-5.5 16.7-7.7 28.5-8.3 46.7-.5 15.3-.5 16.3 1.6 19.6 4.3 7 11 8.6 19.1 4.4l4.4-2.2 2.7-13c5.6-27.3 13.4-52 24.9-78.9 6.8-15.7 9.1-18.7 12.9-16.6 4.5 2.4 4.4 4.1-1.4 16.8-11.9 26.6-21.1 55-26.4 82.1-1.2 5.7-2.1 11.1-2.1 12 0 .9 1.8 3.8 4 6.5 4.1 4.9 5 8.2 2.8 10.4-1.6 1.6-6.5 1.5-7.4 0-2.2-3.5-3.1 13.8-1.4 25.4 2.3 16.1 8.1 18.9 18.8 9.3 4.5-4 11.9-13.2 16.6-20.6l1.6-2.5-8-.1c-8.8 0-12-1.6-12-5.8 0-3.8 2.6-5 10-4.7 4 .2 9-.3 12.2-1.3l5.5-1.6 5.6-11.7c22.3-46.9 36.3-104.8 33.6-138.7-.8-9.9-2.7-15.6-6-17.9-1.9-1.3-2.6-1.3-5.8 0-5.1 2-16.2 13.9-23.6 25.3-3.5 5.4-7.1 10.1-8.1 10.5-2.5 1-6.4-2-6.4-4.9 0-4.1 10.2-19.7 18.9-28.8l4.5-4.7-2.9.1c-1.7 0-5.6.8-8.7 1.8zM194.1 262.2c2.3 4.6 6.1 11.2 8.5 14.8 4.9 7.3 16.9 20.6 15.8 17.5-.3-1.1-1.9-5.6-3.5-10s-3.6-12.3-4.5-17.5l-1.7-9.6-5.2-.1c-2.8-.1-6.9-.9-9-1.7-2-.9-3.9-1.6-4.1-1.6-.2 0 1.4 3.7 3.7 8.2z"/><path d="M223 274.9c0 .5.9 3.3 1.9 6.4 3 8.5 8.6 18.7 13.4 24.1l4.2 4.8v-18.1c0-10-.3-18.1-.7-18.1-.3 0-2.9.5-5.6 1.1-3.6.9-6.2.9-9.1.2-2.3-.6-4.1-.8-4.1-.4zM295.7 301.8c-3.1 4.8-7.9 11.3-10.7 14.4-6 6.7-5.4 7.1 5.6 3.7 8.3-2.6 10.9-3.8 19.8-9.7l6.9-4.5-4.2-2c-2.3-1.1-5.9-3.9-8-6.3l-3.8-4.3-5.6 8.7zM333.9 304.6c-5.2 5.4-19 16-23.6 18.2-5.3 2.5-3.9 3 4.5 1.5 10.2-1.9 20.7-5.6 31.7-11.1l9-4.5-4-1.2c-4.9-1.4-8.4-3.2-11.1-5.6-2-1.9-2.1-1.8-6.5 2.7zM230.6 324.5c-.3 3.2-.2 6.4.4 7.4 1.1 2.1 41.2 16 44.1 15.3.9-.1 3.3-2.7 5.2-5.6l3.6-5.3-7.7-1.3c-14.2-2.3-30.1-7.9-44.3-15.7-.3-.2-.9 2.1-1.3 5.2zM241.5 349.3c-.3.7-1.6 4.4-2.9 8.3l-2.4 7.2 7.6 2.6c4.2 1.4 7.9 2.3 8.3 1.8.8-.9 4.9-13.2 4.9-14.8 0-1.8-15-6.7-15.5-5.1zM215.2 370.3c-2 2.6-3.1 7.6-1.9 8.5 2.1 1.7 47.7 16.4 49.1 15.9 1.8-.7 4.1-7.6 3-8.7-.5-.4-11.8-4.4-25.1-8.8-17.6-5.8-24.5-7.7-25.1-6.9zM212.2 400.7c-1.8 5.4-3.2 10.4-3.2 11 0 1.5 4.8 2.9 5.9 1.7.5-.5 2.1-4.7 3.6-9.4s3-9 3.2-9.6c.3-.8-4.3-3.4-6.1-3.4-.1 0-1.6 4.4-3.4 9.7zM231.5 398.2c-3.2 8.5-6.3 19.2-5.9 19.9.3.5 1.3.9 2.2.9 1.4 0 2.6-2.5 5.1-10 1.8-5.5 2.9-10.4 2.6-11-.9-1.4-3.5-1.2-4 .2zM243.2 411.7c-1.7 5.5-3.2 10.2-3.2 10.6 0 1.4 4.4 2.5 5.7 1.5 1.3-1 7.8-19.7 7.1-20.4-.3-.2-1.8-.6-3.4-1l-2.9-.6-3.3 9.9z"/></svg>